<?xml version="1.0" encoding="UTF-8" standalone="no"?>
<!DOCTYPE svg PUBLIC "-//W3C//DTD SVG 1.1//EN"
 "http://www.w3.org/Graphics/SVG/1.1/DTD/svg11.dtd">
<!-- Generated by graphviz version 2.40.1 (20161225.0304)
 -->
<!-- Title: dependencies Pages: 1 -->
<svg width="716pt" height="284pt"
 viewBox="0.00 0.00 716.00 284.00" xmlns="http://www.w3.org/2000/svg" xmlns:xlink="http://www.w3.org/1999/xlink">
<g id="graph0" class="graph" transform="scale(1 1) rotate(0) translate(4 280)">
<title>dependencies</title>
<polygon fill="#ffffff" stroke="transparent" points="-4,4 -4,-280 712,-280 712,4 -4,4"/>
<text text-anchor="start" x="333.0091" y="-42.4" font-family="sans-serif" font-weight="bold" font-size="14.00" fill="#000000">Legend</text>
<polygon fill="#ffffb3" stroke="transparent" points="120,-10 120,-30 140,-30 140,-10 120,-10"/>
<text text-anchor="start" x="143.629" y="-15.4" font-family="sans-serif" font-size="14.00" fill="#000000"> &#160;Declarations</text>
<polygon fill="#8dd3c7" stroke="transparent" points="233,-10 233,-30 253,-30 253,-10 233,-10"/>
<text text-anchor="start" x="256.7251" y="-15.4" font-family="sans-serif" font-size="14.00" fill="#000000"> &#160;Module</text>
<polygon fill="#80b1d3" stroke="transparent" points="319,-10 319,-30 339,-30 339,-10 319,-10"/>
<text text-anchor="start" x="342.7812" y="-15.4" font-family="sans-serif" font-size="14.00" fill="#000000"> &#160;Bootstrap</text>
<polygon fill="#fdb462" stroke="transparent" points="416,-10 416,-30 436,-30 436,-10 416,-10"/>
<text text-anchor="start" x="439.6732" y="-15.4" font-family="sans-serif" font-size="14.00" fill="#000000"> &#160;Providers</text>
<polygon fill="#fb8072" stroke="transparent" points="512,-10 512,-30 532,-30 532,-10 512,-10"/>
<text text-anchor="start" x="535.7258" y="-15.4" font-family="sans-serif" font-size="14.00" fill="#000000"> &#160;Exports</text>
<g id="clust1" class="cluster">
<title>cluster_SharedModule</title>
<polygon fill="none" stroke="#000000" stroke-dasharray="1,5" points="8,-70 8,-268 700,-268 700,-70 8,-70"/>
</g>
<g id="clust2" class="cluster">
<title>cluster_SharedModule_declarations</title>
<polygon fill="none" stroke="#000000" points="151,-78 151,-130 684,-130 684,-78 151,-78"/>
</g>
<g id="clust7" class="cluster">
<title>cluster_SharedModule_imports</title>
<polygon fill="none" stroke="#000000" points="21,-78 21,-130 143,-130 143,-78 21,-78"/>
</g>
<g id="clust8" class="cluster">
<title>cluster_SharedModule_exports</title>
<polygon fill="none" stroke="#000000" points="16,-208 16,-260 692,-260 692,-208 16,-208"/>
</g>
<!-- HeaderComponent -->
<g id="node1" class="node">
<title>HeaderComponent</title>
<polygon fill="#ffffb3" stroke="#000000" points="675.7437,-122 554.2563,-122 554.2563,-86 675.7437,-86 675.7437,-122"/>
<text text-anchor="middle" x="615" y="-99.8" font-family="Times,serif" font-size="14.00" fill="#000000">HeaderComponent</text>
</g>
<!-- SharedModule -->
<g id="node5" class="node">
<title>SharedModule</title>
<polygon fill="#8dd3c7" stroke="#000000" points="414.4231,-187 411.4231,-191 390.4231,-191 387.4231,-187 315.5769,-187 315.5769,-151 414.4231,-151 414.4231,-187"/>
<text text-anchor="middle" x="365" y="-164.8" font-family="Times,serif" font-size="14.00" fill="#000000">SharedModule</text>
</g>
<!-- HeaderComponent&#45;&gt;SharedModule -->
<g id="edge1" class="edge">
<title>HeaderComponent&#45;&gt;SharedModule</title>
<path fill="none" stroke="#000000" d="M636.7072,-122.2667C636.7072,-140.5552 636.7072,-166 636.7072,-166 636.7072,-166 424.5194,-166 424.5194,-166"/>
<polygon fill="#000000" stroke="#000000" points="424.5194,-162.5001 414.5194,-166 424.5193,-169.5001 424.5194,-162.5001"/>
</g>
<!-- OrderByPipe -->
<g id="node2" class="node">
<title>OrderByPipe</title>
<polygon fill="#ffffb3" stroke="#000000" points="535.8669,-122 446.1331,-122 446.1331,-86 535.8669,-86 535.8669,-122"/>
<text text-anchor="middle" x="491" y="-99.8" font-family="Times,serif" font-size="14.00" fill="#000000">OrderByPipe</text>
</g>
<!-- OrderByPipe&#45;&gt;SharedModule -->
<g id="edge2" class="edge">
<title>OrderByPipe&#45;&gt;SharedModule</title>
<path fill="none" stroke="#000000" d="M491,-122.0091C491,-138.0494 491,-159 491,-159 491,-159 424.4369,-159 424.4369,-159"/>
<polygon fill="#000000" stroke="#000000" points="424.4369,-155.5001 414.4369,-159 424.4369,-162.5001 424.4369,-155.5001"/>
</g>
<!-- SideBarComponent -->
<g id="node3" class="node">
<title>SideBarComponent</title>
<polygon fill="#ffffb3" stroke="#000000" points="428.4327,-122 301.5673,-122 301.5673,-86 428.4327,-86 428.4327,-122"/>
<text text-anchor="middle" x="365" y="-99.8" font-family="Times,serif" font-size="14.00" fill="#000000">SideBarComponent</text>
</g>
<!-- SideBarComponent&#45;&gt;SharedModule -->
<g id="edge3" class="edge">
<title>SideBarComponent&#45;&gt;SharedModule</title>
<path fill="none" stroke="#000000" d="M365,-122.1061C365,-122.1061 365,-140.991 365,-140.991"/>
<polygon fill="#000000" stroke="#000000" points="361.5001,-140.9909 365,-150.991 368.5001,-140.991 361.5001,-140.9909"/>
</g>
<!-- SpinnerComponent -->
<g id="node4" class="node">
<title>SpinnerComponent</title>
<polygon fill="#ffffb3" stroke="#000000" points="283.3809,-122 158.6191,-122 158.6191,-86 283.3809,-86 283.3809,-122"/>
<text text-anchor="middle" x="221" y="-99.8" font-family="Times,serif" font-size="14.00" fill="#000000">SpinnerComponent</text>
</g>
<!-- SpinnerComponent&#45;&gt;SharedModule -->
<g id="edge4" class="edge">
<title>SpinnerComponent&#45;&gt;SharedModule</title>
<path fill="none" stroke="#000000" d="M226.7372,-122.0091C226.7372,-138.0494 226.7372,-159 226.7372,-159 226.7372,-159 305.4745,-159 305.4745,-159"/>
<polygon fill="#000000" stroke="#000000" points="305.4745,-162.5001 315.4745,-159 305.4744,-155.5001 305.4745,-162.5001"/>
</g>
<!-- HeaderComponent  -->
<g id="node7" class="node">
<title>HeaderComponent </title>
<polygon fill="#fb8072" stroke="#000000" points="683.7436,-252 558.2564,-252 558.2564,-216 683.7436,-216 683.7436,-252"/>
<text text-anchor="middle" x="621" y="-229.8" font-family="Times,serif" font-size="14.00" fill="#000000">HeaderComponent </text>
</g>
<!-- SharedModule&#45;&gt;HeaderComponent  -->
<g id="edge6" class="edge">
<title>SharedModule&#45;&gt;HeaderComponent </title>
<path fill="none" stroke="#000000" stroke-dasharray="5,2" d="M414.3163,-173C482.5772,-173 597.5428,-173 597.5428,-173 597.5428,-173 597.5428,-205.698 597.5428,-205.698"/>
<polygon fill="#000000" stroke="#000000" points="594.0429,-205.698 597.5428,-215.698 601.0429,-205.698 594.0429,-205.698"/>
</g>
<!-- MaterialModule  -->
<g id="node8" class="node">
<title>MaterialModule </title>
<polygon fill="#fb8072" stroke="#000000" points="540.4716,-252 429.5284,-252 429.5284,-216 540.4716,-216 540.4716,-252"/>
<text text-anchor="middle" x="485" y="-229.8" font-family="Times,serif" font-size="14.00" fill="#000000">MaterialModule </text>
</g>
<!-- SharedModule&#45;&gt;MaterialModule  -->
<g id="edge7" class="edge">
<title>SharedModule&#45;&gt;MaterialModule </title>
<path fill="none" stroke="#000000" stroke-dasharray="5,2" d="M414.4433,-180C427.4472,-180 437.9157,-180 437.9157,-180 437.9157,-180 437.9157,-205.7181 437.9157,-205.7181"/>
<polygon fill="#000000" stroke="#000000" points="434.4157,-205.718 437.9157,-215.7181 441.4157,-205.7181 434.4157,-205.718"/>
</g>
<!-- OrderByPipe  -->
<g id="node9" class="node">
<title>OrderByPipe </title>
<polygon fill="#fb8072" stroke="#000000" points="411.8675,-252 318.1325,-252 318.1325,-216 411.8675,-216 411.8675,-252"/>
<text text-anchor="middle" x="365" y="-229.8" font-family="Times,serif" font-size="14.00" fill="#000000">OrderByPipe </text>
</g>
<!-- SharedModule&#45;&gt;OrderByPipe  -->
<g id="edge8" class="edge">
<title>SharedModule&#45;&gt;OrderByPipe </title>
<path fill="none" stroke="#000000" stroke-dasharray="5,2" d="M365,-187.1061C365,-187.1061 365,-205.991 365,-205.991"/>
<polygon fill="#000000" stroke="#000000" points="361.5001,-205.9909 365,-215.991 368.5001,-205.991 361.5001,-205.9909"/>
</g>
<!-- SideBarComponent  -->
<g id="node10" class="node">
<title>SideBarComponent </title>
<polygon fill="#fb8072" stroke="#000000" points="299.932,-252 170.068,-252 170.068,-216 299.932,-216 299.932,-252"/>
<text text-anchor="middle" x="235" y="-229.8" font-family="Times,serif" font-size="14.00" fill="#000000">SideBarComponent </text>
</g>
<!-- SharedModule&#45;&gt;SideBarComponent  -->
<g id="edge9" class="edge">
<title>SharedModule&#45;&gt;SideBarComponent </title>
<path fill="none" stroke="#000000" stroke-dasharray="5,2" d="M315.7033,-180C302.4445,-180 291.7032,-180 291.7032,-180 291.7032,-180 291.7032,-205.7181 291.7032,-205.7181"/>
<polygon fill="#000000" stroke="#000000" points="288.2033,-205.718 291.7032,-215.7181 295.2033,-205.7181 288.2033,-205.718"/>
</g>
<!-- SpinnerComponent  -->
<g id="node11" class="node">
<title>SpinnerComponent </title>
<polygon fill="#fb8072" stroke="#000000" points="152.3814,-252 23.6186,-252 23.6186,-216 152.3814,-216 152.3814,-252"/>
<text text-anchor="middle" x="88" y="-229.8" font-family="Times,serif" font-size="14.00" fill="#000000">SpinnerComponent </text>
</g>
<!-- SharedModule&#45;&gt;SpinnerComponent  -->
<g id="edge10" class="edge">
<title>SharedModule&#45;&gt;SpinnerComponent </title>
<path fill="none" stroke="#000000" stroke-dasharray="5,2" d="M315.6422,-173C250.4607,-173 143.8379,-173 143.8379,-173 143.8379,-173 143.8379,-205.698 143.8379,-205.698"/>
<polygon fill="#000000" stroke="#000000" points="140.3379,-205.698 143.8379,-215.698 147.3379,-205.698 140.3379,-205.698"/>
</g>
<!-- MaterialModule -->
<g id="node6" class="node">
<title>MaterialModule</title>
<polygon fill="#8dd3c7" stroke="#000000" points="135.4706,-122 132.4706,-126 111.4706,-126 108.4706,-122 28.5294,-122 28.5294,-86 135.4706,-86 135.4706,-122"/>
<text text-anchor="middle" x="82" y="-99.8" font-family="Times,serif" font-size="14.00" fill="#000000">MaterialModule</text>
</g>
<!-- MaterialModule&#45;&gt;SharedModule -->
<g id="edge5" class="edge">
<title>MaterialModule&#45;&gt;SharedModule</title>
<path fill="none" stroke="#000000" d="M82,-122.2667C82,-140.5552 82,-166 82,-166 82,-166 305.7052,-166 305.7052,-166"/>
<polygon fill="#000000" stroke="#000000" points="305.7052,-169.5001 315.7052,-166 305.7051,-162.5001 305.7052,-169.5001"/>
</g>
</g>
</svg>
