<?xml version="1.0" encoding="UTF-8" standalone="no"?>
<!DOCTYPE svg PUBLIC "-//W3C//DTD SVG 1.1//EN"
 "http://www.w3.org/Graphics/SVG/1.1/DTD/svg11.dtd">
<!-- Generated by graphviz version 2.40.1 (20161225.0304)
 -->
<!-- Title: dependencies Pages: 1 -->
<svg width="4526pt" height="211pt"
 viewBox="0.00 0.00 4526.00 211.00" xmlns="http://www.w3.org/2000/svg" xmlns:xlink="http://www.w3.org/1999/xlink">
<g id="graph0" class="graph" transform="scale(1 1) rotate(0) translate(4 207)">
<title>dependencies</title>
<polygon fill="#ffffff" stroke="transparent" points="-4,4 -4,-207 4522,-207 4522,4 -4,4"/>
<text text-anchor="start" x="2238.0091" y="-42.4" font-family="sans-serif" font-weight="bold" font-size="14.00" fill="#000000">Legend</text>
<polygon fill="#ffffb3" stroke="transparent" points="2025,-10 2025,-30 2045,-30 2045,-10 2025,-10"/>
<text text-anchor="start" x="2048.629" y="-15.4" font-family="sans-serif" font-size="14.00" fill="#000000"> &#160;Declarations</text>
<polygon fill="#8dd3c7" stroke="transparent" points="2138,-10 2138,-30 2158,-30 2158,-10 2138,-10"/>
<text text-anchor="start" x="2161.7251" y="-15.4" font-family="sans-serif" font-size="14.00" fill="#000000"> &#160;Module</text>
<polygon fill="#80b1d3" stroke="transparent" points="2224,-10 2224,-30 2244,-30 2244,-10 2224,-10"/>
<text text-anchor="start" x="2247.7812" y="-15.4" font-family="sans-serif" font-size="14.00" fill="#000000"> &#160;Bootstrap</text>
<polygon fill="#fdb462" stroke="transparent" points="2321,-10 2321,-30 2341,-30 2341,-10 2321,-10"/>
<text text-anchor="start" x="2344.6732" y="-15.4" font-family="sans-serif" font-size="14.00" fill="#000000"> &#160;Providers</text>
<polygon fill="#fb8072" stroke="transparent" points="2417,-10 2417,-30 2437,-30 2437,-10 2417,-10"/>
<text text-anchor="start" x="2440.7258" y="-15.4" font-family="sans-serif" font-size="14.00" fill="#000000"> &#160;Exports</text>
<g id="clust1" class="cluster">
<title>cluster_PublicationWizardModule</title>
<polygon fill="none" stroke="#000000" stroke-dasharray="1,5" points="8,-70 8,-195 4510,-195 4510,-70 8,-70"/>
</g>
<g id="clust2" class="cluster">
<title>cluster_PublicationWizardModule_declarations</title>
<polygon fill="none" stroke="#000000" points="366,-78 366,-130 4502,-130 4502,-78 366,-78"/>
</g>
<g id="clust32" class="cluster">
<title>cluster_PublicationWizardModule_imports</title>
<polygon fill="none" stroke="#000000" points="16,-78 16,-130 358,-130 358,-78 16,-78"/>
</g>
<!-- BuilderComponent -->
<g id="node1" class="node">
<title>BuilderComponent</title>
<polygon fill="#ffffb3" stroke="#000000" points="4493.8258,-122 4370.1742,-122 4370.1742,-86 4493.8258,-86 4493.8258,-122"/>
<text text-anchor="middle" x="4432" y="-99.8" font-family="Times,serif" font-size="14.00" fill="#000000">BuilderComponent</text>
</g>
<!-- PublicationWizardModule -->
<g id="node30" class="node">
<title>PublicationWizardModule</title>
<polygon fill="#8dd3c7" stroke="#000000" points="2355.0197,-187 2352.0197,-191 2331.0197,-191 2328.0197,-187 2190.9803,-187 2190.9803,-151 2355.0197,-151 2355.0197,-187"/>
<text text-anchor="middle" x="2273" y="-164.8" font-family="Times,serif" font-size="14.00" fill="#000000">PublicationWizardModule</text>
</g>
<!-- BuilderComponent&#45;&gt;PublicationWizardModule -->
<g id="edge1" class="edge">
<title>BuilderComponent&#45;&gt;PublicationWizardModule</title>
<path fill="none" stroke="#000000" d="M4432,-122.3802C4432,-146.2785 4432,-185 4432,-185 4432,-185 2365.3265,-185 2365.3265,-185"/>
<polygon fill="#000000" stroke="#000000" points="2365.3265,-181.5001 2355.3265,-185 2365.3264,-188.5001 2365.3265,-181.5001"/>
</g>
<!-- CheckboxfilterPipe -->
<g id="node2" class="node">
<title>CheckboxfilterPipe</title>
<polygon fill="#ffffb3" stroke="#000000" points="4352.3613,-122 4227.6387,-122 4227.6387,-86 4352.3613,-86 4352.3613,-122"/>
<text text-anchor="middle" x="4290" y="-99.8" font-family="Times,serif" font-size="14.00" fill="#000000">CheckboxfilterPipe</text>
</g>
<!-- CheckboxfilterPipe&#45;&gt;PublicationWizardModule -->
<g id="edge2" class="edge">
<title>CheckboxfilterPipe&#45;&gt;PublicationWizardModule</title>
<path fill="none" stroke="#000000" d="M4290,-122.3228C4290,-145.6602 4290,-183 4290,-183 4290,-183 2365.1969,-183 2365.1969,-183"/>
<polygon fill="#000000" stroke="#000000" points="2365.197,-179.5001 2355.1969,-183 2365.1969,-186.5001 2365.197,-179.5001"/>
</g>
<!-- ColumnPipe -->
<g id="node3" class="node">
<title>ColumnPipe</title>
<polygon fill="#ffffb3" stroke="#000000" points="4210.0056,-122 4123.9944,-122 4123.9944,-86 4210.0056,-86 4210.0056,-122"/>
<text text-anchor="middle" x="4167" y="-99.8" font-family="Times,serif" font-size="14.00" fill="#000000">ColumnPipe</text>
</g>
<!-- ColumnPipe&#45;&gt;PublicationWizardModule -->
<g id="edge3" class="edge">
<title>ColumnPipe&#45;&gt;PublicationWizardModule</title>
<path fill="none" stroke="#000000" d="M4167,-122.2479C4167,-145.0179 4167,-181 4167,-181 4167,-181 2365.2955,-181 2365.2955,-181"/>
<polygon fill="#000000" stroke="#000000" points="2365.2955,-177.5001 2355.2955,-181 2365.2954,-184.5001 2365.2955,-177.5001"/>
</g>
<!-- CoreComponent -->
<g id="node4" class="node">
<title>CoreComponent</title>
<polygon fill="#ffffb3" stroke="#000000" points="4106.0452,-122 3997.9548,-122 3997.9548,-86 4106.0452,-86 4106.0452,-122"/>
<text text-anchor="middle" x="4052" y="-99.8" font-family="Times,serif" font-size="14.00" fill="#000000">CoreComponent</text>
</g>
<!-- CoreComponent&#45;&gt;PublicationWizardModule -->
<g id="edge4" class="edge">
<title>CoreComponent&#45;&gt;PublicationWizardModule</title>
<path fill="none" stroke="#000000" d="M4052,-122.2921C4052,-144.2057 4052,-178 4052,-178 4052,-178 2365.237,-178 2365.237,-178"/>
<polygon fill="#000000" stroke="#000000" points="2365.237,-174.5001 2355.237,-178 2365.2369,-181.5001 2365.237,-174.5001"/>
</g>
<!-- CustomdatePipe -->
<g id="node5" class="node">
<title>CustomdatePipe</title>
<polygon fill="#ffffb3" stroke="#000000" points="3979.7702,-122 3872.2298,-122 3872.2298,-86 3979.7702,-86 3979.7702,-122"/>
<text text-anchor="middle" x="3926" y="-99.8" font-family="Times,serif" font-size="14.00" fill="#000000">CustomdatePipe</text>
</g>
<!-- CustomdatePipe&#45;&gt;PublicationWizardModule -->
<g id="edge5" class="edge">
<title>CustomdatePipe&#45;&gt;PublicationWizardModule</title>
<path fill="none" stroke="#000000" d="M3926,-122.1686C3926,-143.498 3926,-176 3926,-176 3926,-176 2365.2551,-176 2365.2551,-176"/>
<polygon fill="#000000" stroke="#000000" points="2365.2551,-172.5001 2355.2551,-176 2365.2551,-179.5001 2365.2551,-172.5001"/>
</g>
<!-- CustomfilterPipe -->
<g id="node6" class="node">
<title>CustomfilterPipe</title>
<polygon fill="#ffffb3" stroke="#000000" points="3853.6583,-122 3742.3417,-122 3742.3417,-86 3853.6583,-86 3853.6583,-122"/>
<text text-anchor="middle" x="3798" y="-99.8" font-family="Times,serif" font-size="14.00" fill="#000000">CustomfilterPipe</text>
</g>
<!-- CustomfilterPipe&#45;&gt;PublicationWizardModule -->
<g id="edge6" class="edge">
<title>CustomfilterPipe&#45;&gt;PublicationWizardModule</title>
<path fill="none" stroke="#000000" d="M3798,-122.0267C3798,-142.7672 3798,-174 3798,-174 3798,-174 2365.2608,-174 2365.2608,-174"/>
<polygon fill="#000000" stroke="#000000" points="2365.2608,-170.5001 2355.2608,-174 2365.2607,-177.5001 2365.2608,-170.5001"/>
</g>
<!-- DisplaydataPipe -->
<g id="node7" class="node">
<title>DisplaydataPipe</title>
<polygon fill="#ffffb3" stroke="#000000" points="3723.7549,-122 3616.2451,-122 3616.2451,-86 3723.7549,-86 3723.7549,-122"/>
<text text-anchor="middle" x="3670" y="-99.8" font-family="Times,serif" font-size="14.00" fill="#000000">DisplaydataPipe</text>
</g>
<!-- DisplaydataPipe&#45;&gt;PublicationWizardModule -->
<g id="edge7" class="edge">
<title>DisplaydataPipe&#45;&gt;PublicationWizardModule</title>
<path fill="none" stroke="#000000" d="M3670,-122.2228C3670,-142.3652 3670,-172 3670,-172 3670,-172 2365.1732,-172 2365.1732,-172"/>
<polygon fill="#000000" stroke="#000000" points="2365.1732,-168.5001 2355.1732,-172 2365.1732,-175.5001 2365.1732,-168.5001"/>
</g>
<!-- DuplicatePublicationComponent -->
<g id="node8" class="node">
<title>DuplicatePublicationComponent</title>
<polygon fill="#ffffb3" stroke="#000000" points="3597.5294,-122 3398.4706,-122 3398.4706,-86 3597.5294,-86 3597.5294,-122"/>
<text text-anchor="middle" x="3498" y="-99.8" font-family="Times,serif" font-size="14.00" fill="#000000">DuplicatePublicationComponent</text>
</g>
<!-- DuplicatePublicationComponent&#45;&gt;PublicationWizardModule -->
<g id="edge8" class="edge">
<title>DuplicatePublicationComponent&#45;&gt;PublicationWizardModule</title>
<path fill="none" stroke="#000000" d="M3498,-122.1061C3498,-141.3391 3498,-169 3498,-169 3498,-169 2365.2779,-169 2365.2779,-169"/>
<polygon fill="#000000" stroke="#000000" points="2365.2779,-165.5001 2355.2779,-169 2365.2778,-172.5001 2365.2779,-165.5001"/>
</g>
<!-- ElementSelectionComponent -->
<g id="node9" class="node">
<title>ElementSelectionComponent</title>
<polygon fill="#ffffb3" stroke="#000000" points="3380.0842,-122 3199.9158,-122 3199.9158,-86 3380.0842,-86 3380.0842,-122"/>
<text text-anchor="middle" x="3290" y="-99.8" font-family="Times,serif" font-size="14.00" fill="#000000">ElementSelectionComponent</text>
</g>
<!-- ElementSelectionComponent&#45;&gt;PublicationWizardModule -->
<g id="edge9" class="edge">
<title>ElementSelectionComponent&#45;&gt;PublicationWizardModule</title>
<path fill="none" stroke="#000000" d="M3290,-122.2222C3290,-140.8285 3290,-167 3290,-167 3290,-167 2365.3639,-167 2365.3639,-167"/>
<polygon fill="#000000" stroke="#000000" points="2365.364,-163.5001 2355.3639,-167 2365.3639,-170.5001 2365.364,-163.5001"/>
</g>
<!-- FilterComponent -->
<g id="node10" class="node">
<title>FilterComponent</title>
<polygon fill="#ffffb3" stroke="#000000" points="3181.6625,-122 3070.3375,-122 3070.3375,-86 3181.6625,-86 3181.6625,-122"/>
<text text-anchor="middle" x="3126" y="-99.8" font-family="Times,serif" font-size="14.00" fill="#000000">FilterComponent</text>
</g>
<!-- FilterComponent&#45;&gt;PublicationWizardModule -->
<g id="edge10" class="edge">
<title>FilterComponent&#45;&gt;PublicationWizardModule</title>
<path fill="none" stroke="#000000" d="M3126,-122.302C3126,-140.2699 3126,-165 3126,-165 3126,-165 2365.1764,-165 2365.1764,-165"/>
<polygon fill="#000000" stroke="#000000" points="2365.1764,-161.5001 2355.1764,-165 2365.1763,-168.5001 2365.1764,-161.5001"/>
</g>
<!-- FilterPipe -->
<g id="node11" class="node">
<title>FilterPipe</title>
<polygon fill="#ffffb3" stroke="#000000" points="3052.7177,-122 2981.2823,-122 2981.2823,-86 3052.7177,-86 3052.7177,-122"/>
<text text-anchor="middle" x="3017" y="-99.8" font-family="Times,serif" font-size="14.00" fill="#000000">FilterPipe</text>
</g>
<!-- FilterPipe&#45;&gt;PublicationWizardModule -->
<g id="edge11" class="edge">
<title>FilterPipe&#45;&gt;PublicationWizardModule</title>
<path fill="none" stroke="#000000" d="M3017,-122.0225C3017,-139.3734 3017,-163 3017,-163 3017,-163 2365.1062,-163 2365.1062,-163"/>
<polygon fill="#000000" stroke="#000000" points="2365.1062,-159.5001 2355.1062,-163 2365.1061,-166.5001 2365.1062,-159.5001"/>
</g>
<!-- GenerateComponent -->
<g id="node12" class="node">
<title>GenerateComponent</title>
<polygon fill="#ffffb3" stroke="#000000" points="2962.8487,-122 2831.1513,-122 2831.1513,-86 2962.8487,-86 2962.8487,-122"/>
<text text-anchor="middle" x="2897" y="-99.8" font-family="Times,serif" font-size="14.00" fill="#000000">GenerateComponent</text>
</g>
<!-- GenerateComponent&#45;&gt;PublicationWizardModule -->
<g id="edge12" class="edge">
<title>GenerateComponent&#45;&gt;PublicationWizardModule</title>
<path fill="none" stroke="#000000" d="M2897,-122.027C2897,-138.3976 2897,-160 2897,-160 2897,-160 2365.2188,-160 2365.2188,-160"/>
<polygon fill="#000000" stroke="#000000" points="2365.2188,-156.5001 2355.2188,-160 2365.2187,-163.5001 2365.2188,-156.5001"/>
</g>
<!-- GetFiltersPipe -->
<g id="node13" class="node">
<title>GetFiltersPipe</title>
<polygon fill="#ffffb3" stroke="#000000" points="2813.3739,-122 2716.6261,-122 2716.6261,-86 2813.3739,-86 2813.3739,-122"/>
<text text-anchor="middle" x="2765" y="-99.8" font-family="Times,serif" font-size="14.00" fill="#000000">GetFiltersPipe</text>
</g>
<!-- GetFiltersPipe&#45;&gt;PublicationWizardModule -->
<g id="edge13" class="edge">
<title>GetFiltersPipe&#45;&gt;PublicationWizardModule</title>
<path fill="none" stroke="#000000" d="M2765,-122.2819C2765,-137.9478 2765,-158 2765,-158 2765,-158 2365.0727,-158 2365.0727,-158"/>
<polygon fill="#000000" stroke="#000000" points="2365.0728,-154.5001 2355.0727,-158 2365.0727,-161.5001 2365.0728,-154.5001"/>
</g>
<!-- LangStackFilterPipe -->
<g id="node14" class="node">
<title>LangStackFilterPipe</title>
<polygon fill="#ffffb3" stroke="#000000" points="2698.587,-122 2567.413,-122 2567.413,-86 2698.587,-86 2698.587,-122"/>
<text text-anchor="middle" x="2633" y="-99.8" font-family="Times,serif" font-size="14.00" fill="#000000">LangStackFilterPipe</text>
</g>
<!-- LangStackFilterPipe&#45;&gt;PublicationWizardModule -->
<g id="edge14" class="edge">
<title>LangStackFilterPipe&#45;&gt;PublicationWizardModule</title>
<path fill="none" stroke="#000000" d="M2633,-122.1871C2633,-137.1824 2633,-156 2633,-156 2633,-156 2365.14,-156 2365.14,-156"/>
<polygon fill="#000000" stroke="#000000" points="2365.1401,-152.5001 2355.14,-156 2365.14,-159.5001 2365.1401,-152.5001"/>
</g>
<!-- NewPublicationComponent -->
<g id="node15" class="node">
<title>NewPublicationComponent</title>
<polygon fill="#ffffb3" stroke="#000000" points="2549.535,-122 2378.465,-122 2378.465,-86 2549.535,-86 2549.535,-122"/>
<text text-anchor="middle" x="2464" y="-99.8" font-family="Times,serif" font-size="14.00" fill="#000000">NewPublicationComponent</text>
</g>
<!-- NewPublicationComponent&#45;&gt;PublicationWizardModule -->
<g id="edge15" class="edge">
<title>NewPublicationComponent&#45;&gt;PublicationWizardModule</title>
<path fill="none" stroke="#000000" d="M2464,-122.0511C2464,-136.373 2464,-154 2464,-154 2464,-154 2365.1097,-154 2365.1097,-154"/>
<polygon fill="#000000" stroke="#000000" points="2365.1097,-150.5001 2355.1097,-154 2365.1096,-157.5001 2365.1097,-150.5001"/>
</g>
<!-- OpenPublicationComponent -->
<g id="node16" class="node">
<title>OpenPublicationComponent</title>
<polygon fill="#ffffb3" stroke="#000000" points="2360.9283,-122 2185.0717,-122 2185.0717,-86 2360.9283,-86 2360.9283,-122"/>
<text text-anchor="middle" x="2273" y="-99.8" font-family="Times,serif" font-size="14.00" fill="#000000">OpenPublicationComponent</text>
</g>
<!-- OpenPublicationComponent&#45;&gt;PublicationWizardModule -->
<g id="edge16" class="edge">
<title>OpenPublicationComponent&#45;&gt;PublicationWizardModule</title>
<path fill="none" stroke="#000000" d="M2273,-122.1061C2273,-122.1061 2273,-140.991 2273,-140.991"/>
<polygon fill="#000000" stroke="#000000" points="2269.5001,-140.9909 2273,-150.991 2276.5001,-140.991 2269.5001,-140.9909"/>
</g>
<!-- PreviewBoxComponent -->
<g id="node17" class="node">
<title>PreviewBoxComponent</title>
<polygon fill="#ffffb3" stroke="#000000" points="2167.0393,-122 2016.9607,-122 2016.9607,-86 2167.0393,-86 2167.0393,-122"/>
<text text-anchor="middle" x="2092" y="-99.8" font-family="Times,serif" font-size="14.00" fill="#000000">PreviewBoxComponent</text>
</g>
<!-- PreviewBoxComponent&#45;&gt;PublicationWizardModule -->
<g id="edge17" class="edge">
<title>PreviewBoxComponent&#45;&gt;PublicationWizardModule</title>
<path fill="none" stroke="#000000" d="M2092,-122.0511C2092,-136.373 2092,-154 2092,-154 2092,-154 2180.9733,-154 2180.9733,-154"/>
<polygon fill="#000000" stroke="#000000" points="2180.9734,-157.5001 2190.9733,-154 2180.9733,-150.5001 2180.9734,-157.5001"/>
</g>
<!-- PreviewFilterPipe -->
<g id="node18" class="node">
<title>PreviewFilterPipe</title>
<polygon fill="#ffffb3" stroke="#000000" points="1998.587,-122 1881.413,-122 1881.413,-86 1998.587,-86 1998.587,-122"/>
<text text-anchor="middle" x="1940" y="-99.8" font-family="Times,serif" font-size="14.00" fill="#000000">PreviewFilterPipe</text>
</g>
<!-- PreviewFilterPipe&#45;&gt;PublicationWizardModule -->
<g id="edge18" class="edge">
<title>PreviewFilterPipe&#45;&gt;PublicationWizardModule</title>
<path fill="none" stroke="#000000" d="M1940,-122.1871C1940,-137.1824 1940,-156 1940,-156 1940,-156 2180.6854,-156 2180.6854,-156"/>
<polygon fill="#000000" stroke="#000000" points="2180.6854,-159.5001 2190.6854,-156 2180.6853,-152.5001 2180.6854,-159.5001"/>
</g>
<!-- PublicationSelectionComponent -->
<g id="node19" class="node">
<title>PublicationSelectionComponent</title>
<polygon fill="#ffffb3" stroke="#000000" points="1863.7049,-122 1666.2951,-122 1666.2951,-86 1863.7049,-86 1863.7049,-122"/>
<text text-anchor="middle" x="1765" y="-99.8" font-family="Times,serif" font-size="14.00" fill="#000000">PublicationSelectionComponent</text>
</g>
<!-- PublicationSelectionComponent&#45;&gt;PublicationWizardModule -->
<g id="edge19" class="edge">
<title>PublicationSelectionComponent&#45;&gt;PublicationWizardModule</title>
<path fill="none" stroke="#000000" d="M1765,-122.2819C1765,-137.9478 1765,-158 1765,-158 1765,-158 2180.8164,-158 2180.8164,-158"/>
<polygon fill="#000000" stroke="#000000" points="2180.8165,-161.5001 2190.8164,-158 2180.8164,-154.5001 2180.8165,-161.5001"/>
</g>
<!-- RowPipe -->
<g id="node20" class="node">
<title>RowPipe</title>
<polygon fill="#ffffb3" stroke="#000000" points="1648.8318,-122 1581.1682,-122 1581.1682,-86 1648.8318,-86 1648.8318,-122"/>
<text text-anchor="middle" x="1615" y="-99.8" font-family="Times,serif" font-size="14.00" fill="#000000">RowPipe</text>
</g>
<!-- RowPipe&#45;&gt;PublicationWizardModule -->
<g id="edge20" class="edge">
<title>RowPipe&#45;&gt;PublicationWizardModule</title>
<path fill="none" stroke="#000000" d="M1615,-122.027C1615,-138.3976 1615,-160 1615,-160 1615,-160 2180.6625,-160 2180.6625,-160"/>
<polygon fill="#000000" stroke="#000000" points="2180.6625,-163.5001 2190.6625,-160 2180.6624,-156.5001 2180.6625,-163.5001"/>
</g>
<!-- SafeHTMLPipe -->
<g id="node21" class="node">
<title>SafeHTMLPipe</title>
<polygon fill="#ffffb3" stroke="#000000" points="1563.9174,-122 1458.0826,-122 1458.0826,-86 1563.9174,-86 1563.9174,-122"/>
<text text-anchor="middle" x="1511" y="-99.8" font-family="Times,serif" font-size="14.00" fill="#000000">SafeHTMLPipe</text>
</g>
<!-- SafeHTMLPipe&#45;&gt;PublicationWizardModule -->
<g id="edge21" class="edge">
<title>SafeHTMLPipe&#45;&gt;PublicationWizardModule</title>
<path fill="none" stroke="#000000" d="M1511,-122.0225C1511,-139.3734 1511,-163 1511,-163 1511,-163 2180.7287,-163 2180.7287,-163"/>
<polygon fill="#000000" stroke="#000000" points="2180.7287,-166.5001 2190.7287,-163 2180.7286,-159.5001 2180.7287,-166.5001"/>
</g>
<!-- SearchPipe -->
<g id="node22" class="node">
<title>SearchPipe</title>
<polygon fill="#ffffb3" stroke="#000000" points="1440.4748,-122 1361.5252,-122 1361.5252,-86 1440.4748,-86 1440.4748,-122"/>
<text text-anchor="middle" x="1401" y="-99.8" font-family="Times,serif" font-size="14.00" fill="#000000">SearchPipe</text>
</g>
<!-- SearchPipe&#45;&gt;PublicationWizardModule -->
<g id="edge22" class="edge">
<title>SearchPipe&#45;&gt;PublicationWizardModule</title>
<path fill="none" stroke="#000000" d="M1401,-122.302C1401,-140.2699 1401,-165 1401,-165 1401,-165 2180.9644,-165 2180.9644,-165"/>
<polygon fill="#000000" stroke="#000000" points="2180.9644,-168.5001 2190.9644,-165 2180.9643,-161.5001 2180.9644,-168.5001"/>
</g>
<!-- SelectedColumnPipe -->
<g id="node23" class="node">
<title>SelectedColumnPipe</title>
<polygon fill="#ffffb3" stroke="#000000" points="1343.9285,-122 1210.0715,-122 1210.0715,-86 1343.9285,-86 1343.9285,-122"/>
<text text-anchor="middle" x="1277" y="-99.8" font-family="Times,serif" font-size="14.00" fill="#000000">SelectedColumnPipe</text>
</g>
<!-- SelectedColumnPipe&#45;&gt;PublicationWizardModule -->
<g id="edge23" class="edge">
<title>SelectedColumnPipe&#45;&gt;PublicationWizardModule</title>
<path fill="none" stroke="#000000" d="M1277,-122.2222C1277,-140.8285 1277,-167 1277,-167 1277,-167 2180.6458,-167 2180.6458,-167"/>
<polygon fill="#000000" stroke="#000000" points="2180.6458,-170.5001 2190.6458,-167 2180.6457,-163.5001 2180.6458,-170.5001"/>
</g>
<!-- SettingsComponent -->
<g id="node24" class="node">
<title>SettingsComponent</title>
<polygon fill="#ffffb3" stroke="#000000" points="1192.4468,-122 1065.5532,-122 1065.5532,-86 1192.4468,-86 1192.4468,-122"/>
<text text-anchor="middle" x="1129" y="-99.8" font-family="Times,serif" font-size="14.00" fill="#000000">SettingsComponent</text>
</g>
<!-- SettingsComponent&#45;&gt;PublicationWizardModule -->
<g id="edge24" class="edge">
<title>SettingsComponent&#45;&gt;PublicationWizardModule</title>
<path fill="none" stroke="#000000" d="M1129,-122.1061C1129,-141.3391 1129,-169 1129,-169 1129,-169 2180.7263,-169 2180.7263,-169"/>
<polygon fill="#000000" stroke="#000000" points="2180.7264,-172.5001 2190.7263,-169 2180.7263,-165.5001 2180.7264,-172.5001"/>
</g>
<!-- SliderComponent -->
<g id="node25" class="node">
<title>SliderComponent</title>
<polygon fill="#ffffb3" stroke="#000000" points="1047.2716,-122 932.7284,-122 932.7284,-86 1047.2716,-86 1047.2716,-122"/>
<text text-anchor="middle" x="990" y="-99.8" font-family="Times,serif" font-size="14.00" fill="#000000">SliderComponent</text>
</g>
<!-- SliderComponent&#45;&gt;PublicationWizardModule -->
<g id="edge25" class="edge">
<title>SliderComponent&#45;&gt;PublicationWizardModule</title>
<path fill="none" stroke="#000000" d="M990,-122.2228C990,-142.3652 990,-172 990,-172 990,-172 2180.7908,-172 2180.7908,-172"/>
<polygon fill="#000000" stroke="#000000" points="2180.7909,-175.5001 2190.7908,-172 2180.7908,-168.5001 2180.7909,-175.5001"/>
</g>
<!-- SyncComponent -->
<g id="node26" class="node">
<title>SyncComponent</title>
<polygon fill="#ffffb3" stroke="#000000" points="914.8301,-122 805.1699,-122 805.1699,-86 914.8301,-86 914.8301,-122"/>
<text text-anchor="middle" x="860" y="-99.8" font-family="Times,serif" font-size="14.00" fill="#000000">SyncComponent</text>
</g>
<!-- SyncComponent&#45;&gt;PublicationWizardModule -->
<g id="edge26" class="edge">
<title>SyncComponent&#45;&gt;PublicationWizardModule</title>
<path fill="none" stroke="#000000" d="M860,-122.0267C860,-142.7672 860,-174 860,-174 860,-174 2180.9236,-174 2180.9236,-174"/>
<polygon fill="#000000" stroke="#000000" points="2180.9237,-177.5001 2190.9236,-174 2180.9236,-170.5001 2180.9237,-177.5001"/>
</g>
<!-- TableComponent -->
<g id="node27" class="node">
<title>TableComponent</title>
<polygon fill="#ffffb3" stroke="#000000" points="787.705,-122 674.295,-122 674.295,-86 787.705,-86 787.705,-122"/>
<text text-anchor="middle" x="731" y="-99.8" font-family="Times,serif" font-size="14.00" fill="#000000">TableComponent</text>
</g>
<!-- TableComponent&#45;&gt;PublicationWizardModule -->
<g id="edge27" class="edge">
<title>TableComponent&#45;&gt;PublicationWizardModule</title>
<path fill="none" stroke="#000000" d="M731,-122.1686C731,-143.498 731,-176 731,-176 731,-176 2180.9125,-176 2180.9125,-176"/>
<polygon fill="#000000" stroke="#000000" points="2180.9126,-179.5001 2190.9125,-176 2180.9125,-172.5001 2180.9126,-179.5001"/>
</g>
<!-- UniquePipe -->
<g id="node28" class="node">
<title>UniquePipe</title>
<polygon fill="#ffffb3" stroke="#000000" points="656.0997,-122 573.9003,-122 573.9003,-86 656.0997,-86 656.0997,-122"/>
<text text-anchor="middle" x="615" y="-99.8" font-family="Times,serif" font-size="14.00" fill="#000000">UniquePipe</text>
</g>
<!-- UniquePipe&#45;&gt;PublicationWizardModule -->
<g id="edge28" class="edge">
<title>UniquePipe&#45;&gt;PublicationWizardModule</title>
<path fill="none" stroke="#000000" d="M615,-122.2921C615,-144.2057 615,-178 615,-178 615,-178 2180.7795,-178 2180.7795,-178"/>
<polygon fill="#000000" stroke="#000000" points="2180.7796,-181.5001 2190.7795,-178 2180.7795,-174.5001 2180.7796,-181.5001"/>
</g>
<!-- VariableTemplateComponent -->
<g id="node29" class="node">
<title>VariableTemplateComponent</title>
<polygon fill="#ffffb3" stroke="#000000" points="556.3932,-122 373.6068,-122 373.6068,-86 556.3932,-86 556.3932,-122"/>
<text text-anchor="middle" x="465" y="-99.8" font-family="Times,serif" font-size="14.00" fill="#000000">VariableTemplateComponent</text>
</g>
<!-- VariableTemplateComponent&#45;&gt;PublicationWizardModule -->
<g id="edge29" class="edge">
<title>VariableTemplateComponent&#45;&gt;PublicationWizardModule</title>
<path fill="none" stroke="#000000" d="M465,-122.2479C465,-145.0179 465,-181 465,-181 465,-181 2180.913,-181 2180.913,-181"/>
<polygon fill="#000000" stroke="#000000" points="2180.9131,-184.5001 2190.913,-181 2180.913,-177.5001 2180.9131,-184.5001"/>
</g>
<!-- PublicationWizardRoutingModule -->
<g id="node31" class="node">
<title>PublicationWizardRoutingModule</title>
<polygon fill="#8dd3c7" stroke="#000000" points="349.6371,-122 346.6371,-126 325.6371,-126 322.6371,-122 140.3629,-122 140.3629,-86 349.6371,-86 349.6371,-122"/>
<text text-anchor="middle" x="245" y="-99.8" font-family="Times,serif" font-size="14.00" fill="#000000">PublicationWizardRoutingModule</text>
</g>
<!-- PublicationWizardRoutingModule&#45;&gt;PublicationWizardModule -->
<g id="edge30" class="edge">
<title>PublicationWizardRoutingModule&#45;&gt;PublicationWizardModule</title>
<path fill="none" stroke="#000000" d="M245,-122.3228C245,-145.6602 245,-183 245,-183 245,-183 2180.6718,-183 2180.6718,-183"/>
<polygon fill="#000000" stroke="#000000" points="2180.6718,-186.5001 2190.6718,-183 2180.6718,-179.5001 2180.6718,-186.5001"/>
</g>
<!-- SharedModule -->
<g id="node32" class="node">
<title>SharedModule</title>
<polygon fill="#8dd3c7" stroke="#000000" points="122.4231,-122 119.4231,-126 98.4231,-126 95.4231,-122 23.5769,-122 23.5769,-86 122.4231,-86 122.4231,-122"/>
<text text-anchor="middle" x="73" y="-99.8" font-family="Times,serif" font-size="14.00" fill="#000000">SharedModule</text>
</g>
<!-- SharedModule&#45;&gt;PublicationWizardModule -->
<g id="edge31" class="edge">
<title>SharedModule&#45;&gt;PublicationWizardModule</title>
<path fill="none" stroke="#000000" d="M73,-122.3802C73,-146.2785 73,-185 73,-185 73,-185 2180.7726,-185 2180.7726,-185"/>
<polygon fill="#000000" stroke="#000000" points="2180.7726,-188.5001 2190.7726,-185 2180.7726,-181.5001 2180.7726,-188.5001"/>
</g>
</g>
</svg>
