<?xml version="1.0" encoding="UTF-8" standalone="no"?>
<!DOCTYPE svg PUBLIC "-//W3C//DTD SVG 1.1//EN"
 "http://www.w3.org/Graphics/SVG/1.1/DTD/svg11.dtd">
<!-- Generated by graphviz version 2.40.1 (20161225.0304)
 -->
<!-- Title: dependencies Pages: 1 -->
<svg width="1596pt" height="211pt"
 viewBox="0.00 0.00 1596.00 211.00" xmlns="http://www.w3.org/2000/svg" xmlns:xlink="http://www.w3.org/1999/xlink">
<g id="graph0" class="graph" transform="scale(1 1) rotate(0) translate(4 207)">
<title>dependencies</title>
<polygon fill="#ffffff" stroke="transparent" points="-4,4 -4,-207 1592,-207 1592,4 -4,4"/>
<text text-anchor="start" x="773.0091" y="-42.4" font-family="sans-serif" font-weight="bold" font-size="14.00" fill="#000000">Legend</text>
<polygon fill="#ffffb3" stroke="transparent" points="560,-10 560,-30 580,-30 580,-10 560,-10"/>
<text text-anchor="start" x="583.629" y="-15.4" font-family="sans-serif" font-size="14.00" fill="#000000"> &#160;Declarations</text>
<polygon fill="#8dd3c7" stroke="transparent" points="673,-10 673,-30 693,-30 693,-10 673,-10"/>
<text text-anchor="start" x="696.7251" y="-15.4" font-family="sans-serif" font-size="14.00" fill="#000000"> &#160;Module</text>
<polygon fill="#80b1d3" stroke="transparent" points="759,-10 759,-30 779,-30 779,-10 759,-10"/>
<text text-anchor="start" x="782.7812" y="-15.4" font-family="sans-serif" font-size="14.00" fill="#000000"> &#160;Bootstrap</text>
<polygon fill="#fdb462" stroke="transparent" points="856,-10 856,-30 876,-30 876,-10 856,-10"/>
<text text-anchor="start" x="879.6732" y="-15.4" font-family="sans-serif" font-size="14.00" fill="#000000"> &#160;Providers</text>
<polygon fill="#fb8072" stroke="transparent" points="952,-10 952,-30 972,-30 972,-10 952,-10"/>
<text text-anchor="start" x="975.7258" y="-15.4" font-family="sans-serif" font-size="14.00" fill="#000000"> &#160;Exports</text>
<g id="clust1" class="cluster">
<title>cluster_MarketingBoardModule</title>
<polygon fill="none" stroke="#000000" stroke-dasharray="1,5" points="8,-70 8,-195 1580,-195 1580,-70 8,-70"/>
</g>
<g id="clust2" class="cluster">
<title>cluster_MarketingBoardModule_declarations</title>
<polygon fill="none" stroke="#000000" points="872,-78 872,-130 1572,-130 1572,-78 872,-78"/>
</g>
<g id="clust7" class="cluster">
<title>cluster_MarketingBoardModule_imports</title>
<polygon fill="none" stroke="#000000" points="534,-78 534,-130 864,-130 864,-78 534,-78"/>
</g>
<g id="clust10" class="cluster">
<title>cluster_MarketingBoardModule_providers</title>
<polygon fill="none" stroke="#000000" points="16,-78 16,-130 526,-130 526,-78 16,-78"/>
</g>
<!-- CoreComponent -->
<g id="node1" class="node">
<title>CoreComponent</title>
<polygon fill="#ffffb3" stroke="#000000" points="1564.0452,-122 1455.9548,-122 1455.9548,-86 1564.0452,-86 1564.0452,-122"/>
<text text-anchor="middle" x="1510" y="-99.8" font-family="Times,serif" font-size="14.00" fill="#000000">CoreComponent</text>
</g>
<!-- MarketingBoardModule -->
<g id="node5" class="node">
<title>MarketingBoardModule</title>
<polygon fill="#8dd3c7" stroke="#000000" points="935.0772,-187 932.0772,-191 911.0772,-191 908.0772,-187 782.9228,-187 782.9228,-151 935.0772,-151 935.0772,-187"/>
<text text-anchor="middle" x="859" y="-164.8" font-family="Times,serif" font-size="14.00" fill="#000000">MarketingBoardModule</text>
</g>
<!-- CoreComponent&#45;&gt;MarketingBoardModule -->
<g id="edge1" class="edge">
<title>CoreComponent&#45;&gt;MarketingBoardModule</title>
<path fill="none" stroke="#000000" d="M1510,-122.2921C1510,-144.2057 1510,-178 1510,-178 1510,-178 945.2719,-178 945.2719,-178"/>
<polygon fill="#000000" stroke="#000000" points="945.2719,-174.5001 935.2719,-178 945.2719,-181.5001 945.2719,-174.5001"/>
</g>
<!-- DashboardComponent -->
<g id="node2" class="node">
<title>DashboardComponent</title>
<polygon fill="#ffffb3" stroke="#000000" points="1437.9734,-122 1296.0266,-122 1296.0266,-86 1437.9734,-86 1437.9734,-122"/>
<text text-anchor="middle" x="1367" y="-99.8" font-family="Times,serif" font-size="14.00" fill="#000000">DashboardComponent</text>
</g>
<!-- DashboardComponent&#45;&gt;MarketingBoardModule -->
<g id="edge2" class="edge">
<title>DashboardComponent&#45;&gt;MarketingBoardModule</title>
<path fill="none" stroke="#000000" d="M1367,-122.1061C1367,-141.3391 1367,-169 1367,-169 1367,-169 945.0527,-169 945.0527,-169"/>
<polygon fill="#000000" stroke="#000000" points="945.0528,-165.5001 935.0527,-169 945.0527,-172.5001 945.0528,-165.5001"/>
</g>
<!-- StatisticsOfProductStateComponent -->
<g id="node3" class="node">
<title>StatisticsOfProductStateComponent</title>
<polygon fill="#ffffb3" stroke="#000000" points="1278.1951,-122 1059.8049,-122 1059.8049,-86 1278.1951,-86 1278.1951,-122"/>
<text text-anchor="middle" x="1169" y="-99.8" font-family="Times,serif" font-size="14.00" fill="#000000">StatisticsOfProductStateComponent</text>
</g>
<!-- StatisticsOfProductStateComponent&#45;&gt;MarketingBoardModule -->
<g id="edge3" class="edge">
<title>StatisticsOfProductStateComponent&#45;&gt;MarketingBoardModule</title>
<path fill="none" stroke="#000000" d="M1169,-122.027C1169,-138.3976 1169,-160 1169,-160 1169,-160 945.2316,-160 945.2316,-160"/>
<polygon fill="#000000" stroke="#000000" points="945.2316,-156.5001 935.2316,-160 945.2315,-163.5001 945.2316,-156.5001"/>
</g>
<!-- WidgetSettingComponent -->
<g id="node4" class="node">
<title>WidgetSettingComponent</title>
<polygon fill="#ffffb3" stroke="#000000" points="1042.2119,-122 879.7881,-122 879.7881,-86 1042.2119,-86 1042.2119,-122"/>
<text text-anchor="middle" x="961" y="-99.8" font-family="Times,serif" font-size="14.00" fill="#000000">WidgetSettingComponent</text>
</g>
<!-- WidgetSettingComponent&#45;&gt;MarketingBoardModule -->
<g id="edge4" class="edge">
<title>WidgetSettingComponent&#45;&gt;MarketingBoardModule</title>
<path fill="none" stroke="#000000" d="M907.4664,-122.1061C907.4664,-122.1061 907.4664,-140.991 907.4664,-140.991"/>
<polygon fill="#000000" stroke="#000000" points="903.9664,-140.9909 907.4664,-150.991 910.9664,-140.991 903.9664,-140.9909"/>
</g>
<!-- MarketingBoardRoutingModule -->
<g id="node6" class="node">
<title>MarketingBoardRoutingModule</title>
<polygon fill="#8dd3c7" stroke="#000000" points="855.6951,-122 852.6951,-126 831.6951,-126 828.6951,-122 658.3049,-122 658.3049,-86 855.6951,-86 855.6951,-122"/>
<text text-anchor="middle" x="757" y="-99.8" font-family="Times,serif" font-size="14.00" fill="#000000">MarketingBoardRoutingModule</text>
</g>
<!-- MarketingBoardRoutingModule&#45;&gt;MarketingBoardModule -->
<g id="edge5" class="edge">
<title>MarketingBoardRoutingModule&#45;&gt;MarketingBoardModule</title>
<path fill="none" stroke="#000000" d="M819.2795,-122.1061C819.2795,-122.1061 819.2795,-140.991 819.2795,-140.991"/>
<polygon fill="#000000" stroke="#000000" points="815.7795,-140.9909 819.2795,-150.991 822.7795,-140.991 815.7795,-140.9909"/>
</g>
<!-- SharedModule -->
<g id="node7" class="node">
<title>SharedModule</title>
<polygon fill="#8dd3c7" stroke="#000000" points="640.4231,-122 637.4231,-126 616.4231,-126 613.4231,-122 541.5769,-122 541.5769,-86 640.4231,-86 640.4231,-122"/>
<text text-anchor="middle" x="591" y="-99.8" font-family="Times,serif" font-size="14.00" fill="#000000">SharedModule</text>
</g>
<!-- SharedModule&#45;&gt;MarketingBoardModule -->
<g id="edge6" class="edge">
<title>SharedModule&#45;&gt;MarketingBoardModule</title>
<path fill="none" stroke="#000000" d="M591,-122.027C591,-138.3976 591,-160 591,-160 591,-160 772.9188,-160 772.9188,-160"/>
<polygon fill="#000000" stroke="#000000" points="772.9189,-163.5001 782.9188,-160 772.9188,-156.5001 772.9189,-163.5001"/>
</g>
<!-- MarketingBoardService -->
<g id="node8" class="node">
<title>MarketingBoardService</title>
<ellipse fill="#fdb462" stroke="#000000" cx="414" cy="-104" rx="103.6315" ry="18"/>
<text text-anchor="middle" x="414" y="-99.8" font-family="Times,serif" font-size="14.00" fill="#000000">MarketingBoardService</text>
</g>
<!-- MarketingBoardService&#45;&gt;MarketingBoardModule -->
<g id="edge7" class="edge">
<title>MarketingBoardService&#45;&gt;MarketingBoardModule</title>
<path fill="none" stroke="#000000" d="M414,-122.1061C414,-141.3391 414,-169 414,-169 414,-169 772.7547,-169 772.7547,-169"/>
<polygon fill="#000000" stroke="#000000" points="772.7548,-172.5001 782.7547,-169 772.7547,-165.5001 772.7548,-172.5001"/>
</g>
<!-- StatisticsOfProductStateService -->
<g id="node9" class="node">
<title>StatisticsOfProductStateService</title>
<ellipse fill="#fdb462" stroke="#000000" cx="158" cy="-104" rx="134.2945" ry="18"/>
<text text-anchor="middle" x="158" y="-99.8" font-family="Times,serif" font-size="14.00" fill="#000000">StatisticsOfProductStateService</text>
</g>
<!-- StatisticsOfProductStateService&#45;&gt;MarketingBoardModule -->
<g id="edge8" class="edge">
<title>StatisticsOfProductStateService&#45;&gt;MarketingBoardModule</title>
<path fill="none" stroke="#000000" d="M158,-122.2921C158,-144.2057 158,-178 158,-178 158,-178 772.6463,-178 772.6463,-178"/>
<polygon fill="#000000" stroke="#000000" points="772.6463,-181.5001 782.6463,-178 772.6462,-174.5001 772.6463,-181.5001"/>
</g>
</g>
</svg>
