<?xml version="1.0" encoding="UTF-8" standalone="no"?>
<!DOCTYPE svg PUBLIC "-//W3C//DTD SVG 1.1//EN"
 "http://www.w3.org/Graphics/SVG/1.1/DTD/svg11.dtd">
<!-- Generated by graphviz version 2.40.1 (20161225.0304)
 -->
<!-- Title: dependencies Pages: 1 -->
<svg width="899pt" height="284pt"
 viewBox="0.00 0.00 899.00 284.00" xmlns="http://www.w3.org/2000/svg" xmlns:xlink="http://www.w3.org/1999/xlink">
<g id="graph0" class="graph" transform="scale(1 1) rotate(0) translate(4 280)">
<title>dependencies</title>
<polygon fill="#ffffff" stroke="transparent" points="-4,4 -4,-280 895,-280 895,4 -4,4"/>
<text text-anchor="start" x="424.5091" y="-42.4" font-family="sans-serif" font-weight="bold" font-size="14.00" fill="#000000">Legend</text>
<polygon fill="#ffffb3" stroke="transparent" points="211.5,-10 211.5,-30 231.5,-30 231.5,-10 211.5,-10"/>
<text text-anchor="start" x="235.129" y="-15.4" font-family="sans-serif" font-size="14.00" fill="#000000"> &#160;Declarations</text>
<polygon fill="#8dd3c7" stroke="transparent" points="324.5,-10 324.5,-30 344.5,-30 344.5,-10 324.5,-10"/>
<text text-anchor="start" x="348.2251" y="-15.4" font-family="sans-serif" font-size="14.00" fill="#000000"> &#160;Module</text>
<polygon fill="#80b1d3" stroke="transparent" points="410.5,-10 410.5,-30 430.5,-30 430.5,-10 410.5,-10"/>
<text text-anchor="start" x="434.2812" y="-15.4" font-family="sans-serif" font-size="14.00" fill="#000000"> &#160;Bootstrap</text>
<polygon fill="#fdb462" stroke="transparent" points="507.5,-10 507.5,-30 527.5,-30 527.5,-10 507.5,-10"/>
<text text-anchor="start" x="531.1732" y="-15.4" font-family="sans-serif" font-size="14.00" fill="#000000"> &#160;Providers</text>
<polygon fill="#fb8072" stroke="transparent" points="603.5,-10 603.5,-30 623.5,-30 623.5,-10 603.5,-10"/>
<text text-anchor="start" x="627.2258" y="-15.4" font-family="sans-serif" font-size="14.00" fill="#000000"> &#160;Exports</text>
<g id="clust1" class="cluster">
<title>cluster_AppModule</title>
<polygon fill="none" stroke="#000000" stroke-dasharray="1,5" points="8,-70 8,-268 883,-268 883,-70 8,-70"/>
</g>
<g id="clust2" class="cluster">
<title>cluster_AppModule_declarations</title>
<polygon fill="none" stroke="#000000" points="471,-78 471,-130 875,-130 875,-78 471,-78"/>
</g>
<g id="clust6" class="cluster">
<title>cluster_AppModule_imports</title>
<polygon fill="none" stroke="#000000" points="202,-78 202,-130 463,-130 463,-78 202,-78"/>
</g>
<g id="clust8" class="cluster">
<title>cluster_AppModule_bootstrap</title>
<polygon fill="none" stroke="#000000" points="412,-208 412,-260 536,-260 536,-208 412,-208"/>
</g>
<g id="clust9" class="cluster">
<title>cluster_AppModule_providers</title>
<polygon fill="none" stroke="#000000" points="16,-78 16,-130 194,-130 194,-78 16,-78"/>
</g>
<!-- AppComponent -->
<g id="node1" class="node">
<title>AppComponent</title>
<polygon fill="#ffffb3" stroke="#000000" points="866.9399,-122 761.0601,-122 761.0601,-86 866.9399,-86 866.9399,-122"/>
<text text-anchor="middle" x="814" y="-99.8" font-family="Times,serif" font-size="14.00" fill="#000000">AppComponent</text>
</g>
<!-- AppModule -->
<g id="node4" class="node">
<title>AppModule</title>
<polygon fill="#8dd3c7" stroke="#000000" points="515.6571,-187 512.6571,-191 491.6571,-191 488.6571,-187 432.3429,-187 432.3429,-151 515.6571,-151 515.6571,-187"/>
<text text-anchor="middle" x="474" y="-164.8" font-family="Times,serif" font-size="14.00" fill="#000000">AppModule</text>
</g>
<!-- AppComponent&#45;&gt;AppModule -->
<g id="edge1" class="edge">
<title>AppComponent&#45;&gt;AppModule</title>
<path fill="none" stroke="#000000" d="M814,-122.2843C814,-143.3211 814,-175 814,-175 814,-175 525.6907,-175 525.6907,-175"/>
<polygon fill="#000000" stroke="#000000" points="525.6907,-171.5001 515.6907,-175 525.6906,-178.5001 525.6907,-171.5001"/>
</g>
<!-- DialogPopup -->
<g id="node2" class="node">
<title>DialogPopup</title>
<polygon fill="#ffffb3" stroke="#000000" points="742.8851,-122 653.1149,-122 653.1149,-86 742.8851,-86 742.8851,-122"/>
<text text-anchor="middle" x="698" y="-99.8" font-family="Times,serif" font-size="14.00" fill="#000000">DialogPopup</text>
</g>
<!-- DialogPopup&#45;&gt;AppModule -->
<g id="edge2" class="edge">
<title>DialogPopup&#45;&gt;AppModule</title>
<path fill="none" stroke="#000000" d="M698,-122.0225C698,-139.3734 698,-163 698,-163 698,-163 525.8699,-163 525.8699,-163"/>
<polygon fill="#000000" stroke="#000000" points="525.87,-159.5001 515.8699,-163 525.8699,-166.5001 525.87,-159.5001"/>
</g>
<!-- UnauthorisedComponent -->
<g id="node3" class="node">
<title>UnauthorisedComponent</title>
<polygon fill="#ffffb3" stroke="#000000" points="635.2548,-122 478.7452,-122 478.7452,-86 635.2548,-86 635.2548,-122"/>
<text text-anchor="middle" x="557" y="-99.8" font-family="Times,serif" font-size="14.00" fill="#000000">UnauthorisedComponent</text>
</g>
<!-- UnauthorisedComponent&#45;&gt;AppModule -->
<g id="edge3" class="edge">
<title>UnauthorisedComponent&#45;&gt;AppModule</title>
<path fill="none" stroke="#000000" d="M497.2255,-122.1061C497.2255,-122.1061 497.2255,-140.991 497.2255,-140.991"/>
<polygon fill="#000000" stroke="#000000" points="493.7255,-140.9909 497.2255,-150.991 500.7255,-140.991 493.7255,-140.9909"/>
</g>
<!-- AppComponent  -->
<g id="node7" class="node">
<title>AppComponent </title>
<polygon fill="#80b1d3" stroke="#000000" points="528.439,-252 419.561,-252 419.561,-216 528.439,-216 528.439,-252"/>
<text text-anchor="middle" x="474" y="-229.8" font-family="Times,serif" font-size="14.00" fill="#000000">AppComponent </text>
</g>
<!-- AppModule&#45;&gt;AppComponent  -->
<g id="edge6" class="edge">
<title>AppModule&#45;&gt;AppComponent </title>
<path fill="none" stroke="#000000" stroke-dasharray="1,5" d="M474,-187.1061C474,-187.1061 474,-205.991 474,-205.991"/>
<polygon fill="#000000" stroke="#000000" points="470.5001,-205.9909 474,-215.991 477.5001,-205.991 470.5001,-205.9909"/>
</g>
<!-- AppRoutingModule -->
<g id="node5" class="node">
<title>AppRoutingModule</title>
<polygon fill="#8dd3c7" stroke="#000000" points="455.2744,-122 452.2744,-126 431.2744,-126 428.2744,-122 326.7256,-122 326.7256,-86 455.2744,-86 455.2744,-122"/>
<text text-anchor="middle" x="391" y="-99.8" font-family="Times,serif" font-size="14.00" fill="#000000">AppRoutingModule</text>
</g>
<!-- AppRoutingModule&#45;&gt;AppModule -->
<g id="edge4" class="edge">
<title>AppRoutingModule&#45;&gt;AppModule</title>
<path fill="none" stroke="#000000" d="M443.7795,-122.1061C443.7795,-122.1061 443.7795,-140.991 443.7795,-140.991"/>
<polygon fill="#000000" stroke="#000000" points="440.2795,-140.9909 443.7795,-150.991 447.2795,-140.991 440.2795,-140.9909"/>
</g>
<!-- SharedModule -->
<g id="node6" class="node">
<title>SharedModule</title>
<polygon fill="#8dd3c7" stroke="#000000" points="308.4231,-122 305.4231,-126 284.4231,-126 281.4231,-122 209.5769,-122 209.5769,-86 308.4231,-86 308.4231,-122"/>
<text text-anchor="middle" x="259" y="-99.8" font-family="Times,serif" font-size="14.00" fill="#000000">SharedModule</text>
</g>
<!-- SharedModule&#45;&gt;AppModule -->
<g id="edge5" class="edge">
<title>SharedModule&#45;&gt;AppModule</title>
<path fill="none" stroke="#000000" d="M259,-122.0225C259,-139.3734 259,-163 259,-163 259,-163 422.2909,-163 422.2909,-163"/>
<polygon fill="#000000" stroke="#000000" points="422.2909,-166.5001 432.2909,-163 422.2909,-159.5001 422.2909,-166.5001"/>
</g>
<!-- HeaderInterceptor -->
<g id="node8" class="node">
<title>HeaderInterceptor</title>
<ellipse fill="#fdb462" stroke="#000000" cx="105" cy="-104" rx="81.0378" ry="18"/>
<text text-anchor="middle" x="105" y="-99.8" font-family="Times,serif" font-size="14.00" fill="#000000">HeaderInterceptor</text>
</g>
<!-- HeaderInterceptor&#45;&gt;AppModule -->
<g id="edge7" class="edge">
<title>HeaderInterceptor&#45;&gt;AppModule</title>
<path fill="none" stroke="#000000" d="M105,-122.2843C105,-143.3211 105,-175 105,-175 105,-175 422.0303,-175 422.0303,-175"/>
<polygon fill="#000000" stroke="#000000" points="422.0303,-178.5001 432.0303,-175 422.0302,-171.5001 422.0303,-178.5001"/>
</g>
</g>
</svg>
